<?xml version="1.0" encoding="utf-8"?>
<!-- Generator: Adobe Illustrator 23.0.3, SVG Export Plug-In . SVG Version: 6.00 Build 0)  -->
<svg version="1.1" id="图层_1" xmlns="http://www.w3.org/2000/svg" xmlns:xlink="http://www.w3.org/1999/xlink" x="0px" y="0px"
	 viewBox="0 0 24 24" style="enable-background:new 0 0 24 24;" xml:space="preserve">
<style type="text/css">
	.st0{fill-rule:evenodd;clip-rule:evenodd;fill:#D8D8D8;fill-opacity:0;}
	.st1{fill-rule:evenodd;clip-rule:evenodd;}
</style>
<g id="页面1">
	<g id="首页3" transform="translate(-976.000000, -178.000000)">
		<g id="右栏" transform="translate(956.000000, 0.000000)">
			<g id="分组" transform="translate(0.000000, 166.000000)">
				<g id="对象" transform="translate(20.000000, 12.000000)">
					<rect id="Rectangle-13" class="st0" width="24" height="24"/>
					<g transform="translate(5.000000, 5.000000)">
						<g id="Page-1">
						</g>
						<path id="Stroke-3" class="st1" d="M2.8,15H1.5c-0.6,0-1-0.5-1-1.2v-1.7C0.5,10.1,1.9,7,7,7s6.5,3.1,6.5,5.1v1.7
							c0,0.6-0.5,1.2-1,1.2h-1.3H2.8z"/>
						<path id="Stroke-1" class="st1" d="M10,3c0,1.7-1.3,3-3,3S4,4.7,4,3s1.3-3,3-3S10,1.3,10,3z"/>
					</g>
				</g>
			</g>
		</g>
	</g>
</g>
</svg>
